<?xml version="1.0" encoding="UTF-8" standalone="no"?>
<!-- Created with Inkscape (http://www.inkscape.org/) -->

<svg
   xmlns:dc="http://purl.org/dc/elements/1.1/"
   xmlns:cc="http://creativecommons.org/ns#"
   xmlns:rdf="http://www.w3.org/1999/02/22-rdf-syntax-ns#"
   xmlns:svg="http://www.w3.org/2000/svg"
   xmlns="http://www.w3.org/2000/svg"
   xmlns:sodipodi="http://sodipodi.sourceforge.net/DTD/sodipodi-0.dtd"
   xmlns:inkscape="http://www.inkscape.org/namespaces/inkscape"
   width="80"
   height="16"
   id="svg2"
   version="1.1"
   inkscape:version="0.48.4 r9939"
   sodipodi:docname="bird.svg"
   inkscape:export-filename="C:\Users\Administrator\Desktop\bird.png"
   inkscape:export-xdpi="90"
   inkscape:export-ydpi="90">
  <defs
     id="defs4" />
  <sodipodi:namedview
     id="base"
     pagecolor="#ffffff"
     bordercolor="#666666"
     borderopacity="1.0"
     inkscape:pageopacity="0.0"
     inkscape:pageshadow="2"
     inkscape:zoom="22.627417"
     inkscape:cx="7.0820141"
     inkscape:cy="15.28502"
     inkscape:document-units="px"
     inkscape:current-layer="layer1"
     showgrid="true"
     inkscape:window-width="1366"
     inkscape:window-height="716"
     inkscape:window-x="-8"
     inkscape:window-y="-8"
     inkscape:window-maximized="1">
    <inkscape:grid
       type="xygrid"
       id="grid3047" />
  </sodipodi:namedview>
  <metadata
     id="metadata7">
    <rdf:RDF>
      <cc:Work
         rdf:about="">
        <dc:format>image/svg+xml</dc:format>
        <dc:type
           rdf:resource="http://purl.org/dc/dcmitype/StillImage" />
        <dc:title></dc:title>
      </cc:Work>
    </rdf:RDF>
  </metadata>
  <g
     inkscape:label="Layer 1"
     inkscape:groupmode="layer"
     id="layer1"
     transform="translate(0,-1036.3622)">
    <g
       transform="translate(64.065932,1020.3622)"
       inkscape:label="Layer 1"
       id="layer1-7">
      <path
         transform="matrix(0.43726431,-0.01644654,0.01914672,0.50905391,0.73257492,15.324553)"
         inkscape:transform-center-y="-0.50447746"
         inkscape:transform-center-x="-0.0035503998"
         d="M 12.68106,33.160942 5.7346421,32.884902 9.446908,27.007148 z"
         inkscape:randomized="0"
         inkscape:rounded="0"
         inkscape:flatsided="true"
         sodipodi:arg2="1.6105138"
         sodipodi:arg1="0.56331626"
         sodipodi:r2="2.0068407"
         sodipodi:r1="4.0136814"
         sodipodi:cy="31.017664"
         sodipodi:cx="9.2875366"
         sodipodi:sides="3"
         id="path3037"
         style="fill:#ffff00;fill-opacity:1;fill-rule:nonzero;stroke:none"
         sodipodi:type="star" />
      <path
         transform="matrix(0.32296547,-0.01337864,0.01587574,0.38324648,1.0725669,19.38904)"
         inkscape:transform-center-y="-0.41923981"
         inkscape:transform-center-x="-0.020952001"
         d="m 28.487733,33.786066 -7.77087,-0.157255 4.021622,-6.651143 z"
         inkscape:randomized="0"
         inkscape:rounded="0"
         inkscape:flatsided="true"
         sodipodi:arg2="1.59103"
         sodipodi:arg1="0.54383246"
         sodipodi:r2="2.243716"
         sodipodi:r1="4.4874325"
         sodipodi:cy="31.464182"
         sodipodi:cx="24.647694"
         sodipodi:sides="3"
         id="path3039"
         style="fill:#ffff00;fill-opacity:1;fill-rule:nonzero;stroke:none"
         sodipodi:type="star" />
      <path
         transform="matrix(0.17000217,-0.53467013,0.66358915,0.29311013,-2.7532041,25.416573)"
         d="m 14.288519,15.389597 c 0,2.959249 -2.298989,5.358194 -5.1349364,5.358194 -2.8359471,0 -5.1349364,-2.398945 -5.1349364,-5.358194 0,-2.959249 2.2989893,-5.358194 5.1349364,-5.358194 2.8359474,0 5.1349364,2.398945 5.1349364,5.358194 z"
         sodipodi:ry="5.3581944"
         sodipodi:rx="5.1349363"
         sodipodi:cy="15.389597"
         sodipodi:cx="9.1535826"
         id="path3016"
         style="fill:#1a1a1a;fill-opacity:1;fill-rule:nonzero;stroke:none"
         sodipodi:type="arc" />
      <path
         transform="matrix(0.58304072,0,0,0.5986899,-10.158159,14.837071)"
         d="m 37.775271,18.604513 c 0,4.488194 -4.038224,8.126595 -9.019627,8.126595 -4.981403,0 -9.019628,-3.638401 -9.019628,-8.126595 0,-4.488194 4.038225,-8.126594 9.019628,-8.126594 4.981403,0 9.019627,3.6384 9.019627,8.126594 z"
         sodipodi:ry="8.1265945"
         sodipodi:rx="9.0196276"
         sodipodi:cy="18.604513"
         sodipodi:cx="28.755644"
         id="path2999"
         style="fill:#333333;fill-opacity:1;fill-rule:nonzero;stroke:none"
         sodipodi:type="arc" />
      <path
         transform="matrix(0.50212702,0,0,0.50212702,-0.92994748,15.940376)"
         d="m 16.967616,11.638862 c 0,2.860607 -2.898726,5.179587 -6.474485,5.179587 -3.5757596,0 -6.4744852,-2.31898 -6.4744852,-5.179587 0,-2.8606077 2.8987256,-5.1795882 6.4744852,-5.1795882 3.575759,0 6.474485,2.3189805 6.474485,5.1795882 z"
         sodipodi:ry="5.1795878"
         sodipodi:rx="6.4744849"
         sodipodi:cy="11.638862"
         sodipodi:cx="10.493131"
         id="path2993"
         style="fill:none;stroke:none"
         sodipodi:type="arc" />
      <path
         transform="matrix(0.50212702,0,0,0.50212702,-0.92994748,15.940376)"
         d="m 17.235526,11.86212 c 0,3.674401 -2.159051,6.653091 -4.822375,6.653091 -2.6633243,0 -4.822375,-2.97869 -4.822375,-6.653091 0,-3.6744013 2.1590507,-6.6530918 4.822375,-6.6530918 2.663324,0 4.822375,2.9786905 4.822375,6.6530918 z"
         sodipodi:ry="6.6530914"
         sodipodi:rx="4.8223748"
         sodipodi:cy="11.86212"
         sodipodi:cx="12.413151"
         id="path2995"
         style="fill:none;stroke:none"
         sodipodi:type="arc" />
      <path
         sodipodi:type="arc"
         style="fill:#666666;fill-opacity:1;fill-rule:nonzero;stroke:none"
         id="path3018"
         sodipodi:cx="28.755644"
         sodipodi:cy="18.604513"
         sodipodi:rx="9.0196276"
         sodipodi:ry="8.1265945"
         d="m 37.775271,18.604513 c 0,4.488194 -4.038224,8.126595 -9.019627,8.126595 -4.981403,0 -9.019628,-3.638401 -9.019628,-8.126595 0,-4.488194 4.038225,-8.126594 9.019628,-8.126594 4.981403,0 9.019627,3.6384 9.019627,8.126594 z"
         transform="matrix(-0.05303071,0.35245461,-0.37606652,-0.06785941,15.983954,16.356169)" />
      <path
         transform="matrix(0.67637869,0,0,0.67072826,0.97472792,9.2716545)"
         d="m 14.288519,15.389597 c 0,2.959249 -2.298989,5.358194 -5.1349364,5.358194 -2.8359471,0 -5.1349364,-2.398945 -5.1349364,-5.358194 0,-2.959249 2.2989893,-5.358194 5.1349364,-5.358194 2.8359474,0 5.1349364,2.398945 5.1349364,5.358194 z"
         sodipodi:ry="5.3581944"
         sodipodi:rx="5.1349363"
         sodipodi:cy="15.389597"
         sodipodi:cx="9.1535826"
         id="path2997"
         style="fill:#1a1a1a;fill-opacity:1;fill-rule:nonzero;stroke:none"
         sodipodi:type="arc" />
      <path
         inkscape:transform-center-y="-0.18402948"
         inkscape:transform-center-x="-0.34743719"
         transform="matrix(0.02134769,-0.29530654,0.97435413,0.11060128,-2.1355118,23.079885)"
         d="m 13.395486,16.014719 -2.165489,-3.750735 4.330977,-1e-6 z"
         inkscape:randomized="0"
         inkscape:rounded="0"
         inkscape:flatsided="true"
         sodipodi:arg2="2.6179939"
         sodipodi:arg1="1.5707963"
         sodipodi:r2="1.2502455"
         sodipodi:r1="2.5004907"
         sodipodi:cy="13.514229"
         sodipodi:cx="13.395486"
         sodipodi:sides="3"
         id="path3003"
         style="fill:#ffff00;fill-opacity:1;fill-rule:nonzero;stroke:none"
         sodipodi:type="star" />
      <path
         transform="matrix(1.0878459,-0.13881017,0.18465646,0.79742742,-9.813283,12.135862)"
         d="m 16.074583,10.879784 c 0,0.764472 -0.49978,1.3842 -1.11629,1.3842 -0.61651,0 -1.11629,-0.619728 -1.11629,-1.3842 0,-0.764473 0.49978,-1.3842006 1.11629,-1.3842006 0.61651,0 1.11629,0.6197276 1.11629,1.3842006 z"
         sodipodi:ry="1.3842002"
         sodipodi:rx="1.1162905"
         sodipodi:cy="10.879784"
         sodipodi:cx="14.958293"
         id="path3013-1"
         style="fill:#ffffff;fill-opacity:1;fill-rule:nonzero;stroke:none"
         sodipodi:type="arc" />
      <path
         sodipodi:type="arc"
         style="fill:#000000;fill-opacity:1;fill-rule:nonzero;stroke:none"
         id="path3033"
         sodipodi:cx="14.958293"
         sodipodi:cy="10.879784"
         sodipodi:rx="1.1162905"
         sodipodi:ry="1.3842002"
         d="m 16.074583,10.879784 c 0,0.764472 -0.49978,1.3842 -1.11629,1.3842 -0.61651,0 -1.11629,-0.619728 -1.11629,-1.3842 0,-0.764473 0.49978,-1.3842006 1.11629,-1.3842006 0.61651,0 1.11629,0.6197276 1.11629,1.3842006 z"
         transform="matrix(0.96994331,-0.16672855,0.11799421,0.68643128,-7.1252955,14.360939)" />
      <path
         sodipodi:type="arc"
         style="fill:#1a1a1a;fill-opacity:1;fill-rule:nonzero;stroke:none"
         id="path3014"
         sodipodi:cx="9.1535826"
         sodipodi:cy="15.389597"
         sodipodi:rx="5.1349363"
         sodipodi:ry="5.3581944"
         d="m 14.288519,15.389597 c 0,2.959249 -2.298989,5.358194 -5.1349364,5.358194 -2.8359471,0 -5.1349364,-2.398945 -5.1349364,-5.358194 0,-2.959249 2.2989893,-5.358194 5.1349364,-5.358194 2.8359474,0 5.1349364,2.398945 5.1349364,5.358194 z"
         transform="matrix(0.81805893,-0.06876943,-0.15844012,0.9377062,-0.82932809,12.475118)" />
    </g>
    <g
       transform="translate(15.952767,1020.3622)"
       inkscape:label="Layer 1"
       id="layer1-0">
      <path
         transform="matrix(0.43726431,-0.01644654,0.01914672,0.50905391,0.73257492,15.324553)"
         inkscape:transform-center-y="-0.50447746"
         inkscape:transform-center-x="-0.0035503998"
         d="M 12.68106,33.160942 5.7346421,32.884902 9.446908,27.007148 z"
         inkscape:randomized="0"
         inkscape:rounded="0"
         inkscape:flatsided="true"
         sodipodi:arg2="1.6105138"
         sodipodi:arg1="0.56331626"
         sodipodi:r2="2.0068407"
         sodipodi:r1="4.0136814"
         sodipodi:cy="31.017664"
         sodipodi:cx="9.2875366"
         sodipodi:sides="3"
         id="path3037-9"
         style="fill:#ffff00;fill-opacity:1;fill-rule:nonzero;stroke:none"
         sodipodi:type="star" />
      <path
         transform="matrix(0.32296547,-0.01337864,0.01587574,0.38324648,1.0725669,19.38904)"
         inkscape:transform-center-y="-0.41923981"
         inkscape:transform-center-x="-0.020952001"
         d="m 28.487733,33.786066 -7.77087,-0.157255 4.021622,-6.651143 z"
         inkscape:randomized="0"
         inkscape:rounded="0"
         inkscape:flatsided="true"
         sodipodi:arg2="1.59103"
         sodipodi:arg1="0.54383246"
         sodipodi:r2="2.243716"
         sodipodi:r1="4.4874325"
         sodipodi:cy="31.464182"
         sodipodi:cx="24.647694"
         sodipodi:sides="3"
         id="path3039-4"
         style="fill:#ffff00;fill-opacity:1;fill-rule:nonzero;stroke:none"
         sodipodi:type="star" />
      <path
         transform="matrix(0.17000217,-0.53467013,0.66358915,0.29311013,-2.7532041,25.416573)"
         d="m 14.288519,15.389597 c 0,2.959249 -2.298989,5.358194 -5.1349364,5.358194 -2.8359471,0 -5.1349364,-2.398945 -5.1349364,-5.358194 0,-2.959249 2.2989893,-5.358194 5.1349364,-5.358194 2.8359474,0 5.1349364,2.398945 5.1349364,5.358194 z"
         sodipodi:ry="5.3581944"
         sodipodi:rx="5.1349363"
         sodipodi:cy="15.389597"
         sodipodi:cx="9.1535826"
         id="path3016-8"
         style="fill:#1a1a1a;fill-opacity:1;fill-rule:nonzero;stroke:none"
         sodipodi:type="arc" />
      <path
         transform="matrix(0.58304072,0,0,0.5986899,-10.158159,14.837071)"
         d="m 37.775271,18.604513 c 0,4.488194 -4.038224,8.126595 -9.019627,8.126595 -4.981403,0 -9.019628,-3.638401 -9.019628,-8.126595 0,-4.488194 4.038225,-8.126594 9.019628,-8.126594 4.981403,0 9.019627,3.6384 9.019627,8.126594 z"
         sodipodi:ry="8.1265945"
         sodipodi:rx="9.0196276"
         sodipodi:cy="18.604513"
         sodipodi:cx="28.755644"
         id="path2999-8"
         style="fill:#333333;fill-opacity:1;fill-rule:nonzero;stroke:none"
         sodipodi:type="arc" />
      <path
         transform="matrix(0.50212702,0,0,0.50212702,-0.92994748,15.940376)"
         d="m 16.967616,11.638862 c 0,2.860607 -2.898726,5.179587 -6.474485,5.179587 -3.5757596,0 -6.4744852,-2.31898 -6.4744852,-5.179587 0,-2.8606077 2.8987256,-5.1795882 6.4744852,-5.1795882 3.575759,0 6.474485,2.3189805 6.474485,5.1795882 z"
         sodipodi:ry="5.1795878"
         sodipodi:rx="6.4744849"
         sodipodi:cy="11.638862"
         sodipodi:cx="10.493131"
         id="path2993-2"
         style="fill:none;stroke:none"
         sodipodi:type="arc" />
      <path
         transform="matrix(0.50212702,0,0,0.50212702,-0.92994748,15.940376)"
         d="m 17.235526,11.86212 c 0,3.674401 -2.159051,6.653091 -4.822375,6.653091 -2.6633243,0 -4.822375,-2.97869 -4.822375,-6.653091 0,-3.6744013 2.1590507,-6.6530918 4.822375,-6.6530918 2.663324,0 4.822375,2.9786905 4.822375,6.6530918 z"
         sodipodi:ry="6.6530914"
         sodipodi:rx="4.8223748"
         sodipodi:cy="11.86212"
         sodipodi:cx="12.413151"
         id="path2995-4"
         style="fill:none;stroke:none"
         sodipodi:type="arc" />
      <path
         sodipodi:type="arc"
         style="fill:#666666;fill-opacity:1;fill-rule:nonzero;stroke:none"
         id="path3018-5"
         sodipodi:cx="28.755644"
         sodipodi:cy="18.604513"
         sodipodi:rx="9.0196276"
         sodipodi:ry="8.1265945"
         d="m 37.775271,18.604513 c 0,4.488194 -4.038224,8.126595 -9.019627,8.126595 -4.981403,0 -9.019628,-3.638401 -9.019628,-8.126595 0,-4.488194 4.038225,-8.126594 9.019628,-8.126594 4.981403,0 9.019627,3.6384 9.019627,8.126594 z"
         transform="matrix(-0.05303071,0.35245461,-0.37606652,-0.06785941,15.983954,16.356169)" />
      <path
         transform="matrix(0.67637869,0,0,0.67072826,0.97472792,9.2716545)"
         d="m 14.288519,15.389597 c 0,2.959249 -2.298989,5.358194 -5.1349364,5.358194 -2.8359471,0 -5.1349364,-2.398945 -5.1349364,-5.358194 0,-2.959249 2.2989893,-5.358194 5.1349364,-5.358194 2.8359474,0 5.1349364,2.398945 5.1349364,5.358194 z"
         sodipodi:ry="5.3581944"
         sodipodi:rx="5.1349363"
         sodipodi:cy="15.389597"
         sodipodi:cx="9.1535826"
         id="path2997-5"
         style="fill:#1a1a1a;fill-opacity:1;fill-rule:nonzero;stroke:none"
         sodipodi:type="arc" />
      <path
         inkscape:transform-center-y="-0.18402948"
         inkscape:transform-center-x="-0.34743719"
         transform="matrix(0.02134769,-0.29530654,0.97435413,0.11060128,-2.1355118,23.079885)"
         d="m 13.395486,16.014719 -2.165489,-3.750735 4.330977,-1e-6 z"
         inkscape:randomized="0"
         inkscape:rounded="0"
         inkscape:flatsided="true"
         sodipodi:arg2="2.6179939"
         sodipodi:arg1="1.5707963"
         sodipodi:r2="1.2502455"
         sodipodi:r1="2.5004907"
         sodipodi:cy="13.514229"
         sodipodi:cx="13.395486"
         sodipodi:sides="3"
         id="path3003-1"
         style="fill:#ffff00;fill-opacity:1;fill-rule:nonzero;stroke:none"
         sodipodi:type="star" />
      <path
         transform="matrix(1.0878459,-0.13881017,0.18465646,0.79742742,-9.813283,12.135862)"
         d="m 16.074583,10.879784 c 0,0.764472 -0.49978,1.3842 -1.11629,1.3842 -0.61651,0 -1.11629,-0.619728 -1.11629,-1.3842 0,-0.764473 0.49978,-1.3842006 1.11629,-1.3842006 0.61651,0 1.11629,0.6197276 1.11629,1.3842006 z"
         sodipodi:ry="1.3842002"
         sodipodi:rx="1.1162905"
         sodipodi:cy="10.879784"
         sodipodi:cx="14.958293"
         id="path3013-1-7"
         style="fill:#ffffff;fill-opacity:1;fill-rule:nonzero;stroke:none"
         sodipodi:type="arc" />
      <path
         sodipodi:type="arc"
         style="fill:#000000;fill-opacity:1;fill-rule:nonzero;stroke:none"
         id="path3033-1"
         sodipodi:cx="14.958293"
         sodipodi:cy="10.879784"
         sodipodi:rx="1.1162905"
         sodipodi:ry="1.3842002"
         d="m 16.074583,10.879784 c 0,0.764472 -0.49978,1.3842 -1.11629,1.3842 -0.61651,0 -1.11629,-0.619728 -1.11629,-1.3842 0,-0.764473 0.49978,-1.3842006 1.11629,-1.3842006 0.61651,0 1.11629,0.6197276 1.11629,1.3842006 z"
         transform="matrix(0.96994331,-0.16672855,0.11799421,0.68643128,-7.1252955,14.360939)" />
      <path
         sodipodi:type="arc"
         style="fill:#1a1a1a;fill-opacity:1;fill-rule:nonzero;stroke:none"
         id="path3014-1"
         sodipodi:cx="9.1535826"
         sodipodi:cy="15.389597"
         sodipodi:rx="5.1349363"
         sodipodi:ry="5.3581944"
         d="m 14.288519,15.389597 c 0,2.959249 -2.298989,5.358194 -5.1349364,5.358194 -2.8359471,0 -5.1349364,-2.398945 -5.1349364,-5.358194 0,-2.959249 2.2989893,-5.358194 5.1349364,-5.358194 2.8359474,0 5.1349364,2.398945 5.1349364,5.358194 z"
         transform="matrix(0.80240466,0.07867729,-0.31368675,0.89398894,1.9809768,11.217343)" />
    </g>
    <g
       transform="translate(31.426206,1020.3622)"
       inkscape:label="Layer 1"
       id="layer1-2">
      <path
         transform="matrix(0.43726431,-0.01644654,0.01914672,0.50905391,0.73257492,15.324553)"
         inkscape:transform-center-y="-0.50447746"
         inkscape:transform-center-x="-0.0035503998"
         d="M 12.68106,33.160942 5.7346421,32.884902 9.446908,27.007148 z"
         inkscape:randomized="0"
         inkscape:rounded="0"
         inkscape:flatsided="true"
         sodipodi:arg2="1.6105138"
         sodipodi:arg1="0.56331626"
         sodipodi:r2="2.0068407"
         sodipodi:r1="4.0136814"
         sodipodi:cy="31.017664"
         sodipodi:cx="9.2875366"
         sodipodi:sides="3"
         id="path3037-7"
         style="fill:#ffff00;fill-opacity:1;fill-rule:nonzero;stroke:none"
         sodipodi:type="star" />
      <path
         transform="matrix(0.32296547,-0.01337864,0.01587574,0.38324648,1.0725669,19.38904)"
         inkscape:transform-center-y="-0.41923981"
         inkscape:transform-center-x="-0.020952001"
         d="m 28.487733,33.786066 -7.77087,-0.157255 4.021622,-6.651143 z"
         inkscape:randomized="0"
         inkscape:rounded="0"
         inkscape:flatsided="true"
         sodipodi:arg2="1.59103"
         sodipodi:arg1="0.54383246"
         sodipodi:r2="2.243716"
         sodipodi:r1="4.4874325"
         sodipodi:cy="31.464182"
         sodipodi:cx="24.647694"
         sodipodi:sides="3"
         id="path3039-6"
         style="fill:#ffff00;fill-opacity:1;fill-rule:nonzero;stroke:none"
         sodipodi:type="star" />
      <path
         transform="matrix(0.17000217,-0.53467013,0.66358915,0.29311013,-2.7532041,25.416573)"
         d="m 14.288519,15.389597 c 0,2.959249 -2.298989,5.358194 -5.1349364,5.358194 -2.8359471,0 -5.1349364,-2.398945 -5.1349364,-5.358194 0,-2.959249 2.2989893,-5.358194 5.1349364,-5.358194 2.8359474,0 5.1349364,2.398945 5.1349364,5.358194 z"
         sodipodi:ry="5.3581944"
         sodipodi:rx="5.1349363"
         sodipodi:cy="15.389597"
         sodipodi:cx="9.1535826"
         id="path3016-1"
         style="fill:#1a1a1a;fill-opacity:1;fill-rule:nonzero;stroke:none"
         sodipodi:type="arc" />
      <path
         transform="matrix(0.58304072,0,0,0.5986899,-10.158159,14.837071)"
         d="m 37.775271,18.604513 c 0,4.488194 -4.038224,8.126595 -9.019627,8.126595 -4.981403,0 -9.019628,-3.638401 -9.019628,-8.126595 0,-4.488194 4.038225,-8.126594 9.019628,-8.126594 4.981403,0 9.019627,3.6384 9.019627,8.126594 z"
         sodipodi:ry="8.1265945"
         sodipodi:rx="9.0196276"
         sodipodi:cy="18.604513"
         sodipodi:cx="28.755644"
         id="path2999-4"
         style="fill:#333333;fill-opacity:1;fill-rule:nonzero;stroke:none"
         sodipodi:type="arc" />
      <path
         transform="matrix(0.50212702,0,0,0.50212702,-0.92994748,15.940376)"
         d="m 16.967616,11.638862 c 0,2.860607 -2.898726,5.179587 -6.474485,5.179587 -3.5757596,0 -6.4744852,-2.31898 -6.4744852,-5.179587 0,-2.8606077 2.8987256,-5.1795882 6.4744852,-5.1795882 3.575759,0 6.474485,2.3189805 6.474485,5.1795882 z"
         sodipodi:ry="5.1795878"
         sodipodi:rx="6.4744849"
         sodipodi:cy="11.638862"
         sodipodi:cx="10.493131"
         id="path2993-23"
         style="fill:none;stroke:none"
         sodipodi:type="arc" />
      <path
         transform="matrix(0.50212702,0,0,0.50212702,-0.92994748,15.940376)"
         d="m 17.235526,11.86212 c 0,3.674401 -2.159051,6.653091 -4.822375,6.653091 -2.6633243,0 -4.822375,-2.97869 -4.822375,-6.653091 0,-3.6744013 2.1590507,-6.6530918 4.822375,-6.6530918 2.663324,0 4.822375,2.9786905 4.822375,6.6530918 z"
         sodipodi:ry="6.6530914"
         sodipodi:rx="4.8223748"
         sodipodi:cy="11.86212"
         sodipodi:cx="12.413151"
         id="path2995-2"
         style="fill:none;stroke:none"
         sodipodi:type="arc" />
      <path
         sodipodi:type="arc"
         style="fill:#666666;fill-opacity:1;fill-rule:nonzero;stroke:none"
         id="path3018-2"
         sodipodi:cx="28.755644"
         sodipodi:cy="18.604513"
         sodipodi:rx="9.0196276"
         sodipodi:ry="8.1265945"
         d="m 37.775271,18.604513 c 0,4.488194 -4.038224,8.126595 -9.019627,8.126595 -4.981403,0 -9.019628,-3.638401 -9.019628,-8.126595 0,-4.488194 4.038225,-8.126594 9.019628,-8.126594 4.981403,0 9.019627,3.6384 9.019627,8.126594 z"
         transform="matrix(-0.05303071,0.35245461,-0.37606652,-0.06785941,15.983954,16.356169)" />
      <path
         transform="matrix(0.67637869,0,0,0.67072826,0.97472792,9.2716545)"
         d="m 14.288519,15.389597 c 0,2.959249 -2.298989,5.358194 -5.1349364,5.358194 -2.8359471,0 -5.1349364,-2.398945 -5.1349364,-5.358194 0,-2.959249 2.2989893,-5.358194 5.1349364,-5.358194 2.8359474,0 5.1349364,2.398945 5.1349364,5.358194 z"
         sodipodi:ry="5.3581944"
         sodipodi:rx="5.1349363"
         sodipodi:cy="15.389597"
         sodipodi:cx="9.1535826"
         id="path2997-1"
         style="fill:#1a1a1a;fill-opacity:1;fill-rule:nonzero;stroke:none"
         sodipodi:type="arc" />
      <path
         inkscape:transform-center-y="-0.18402948"
         inkscape:transform-center-x="-0.34743719"
         transform="matrix(0.02134769,-0.29530654,0.97435413,0.11060128,-2.1355118,23.079885)"
         d="m 13.395486,16.014719 -2.165489,-3.750735 4.330977,-1e-6 z"
         inkscape:randomized="0"
         inkscape:rounded="0"
         inkscape:flatsided="true"
         sodipodi:arg2="2.6179939"
         sodipodi:arg1="1.5707963"
         sodipodi:r2="1.2502455"
         sodipodi:r1="2.5004907"
         sodipodi:cy="13.514229"
         sodipodi:cx="13.395486"
         sodipodi:sides="3"
         id="path3003-6"
         style="fill:#ffff00;fill-opacity:1;fill-rule:nonzero;stroke:none"
         sodipodi:type="star" />
      <path
         transform="matrix(1.0878459,-0.13881017,0.18465646,0.79742742,-9.813283,12.135862)"
         d="m 16.074583,10.879784 c 0,0.764472 -0.49978,1.3842 -1.11629,1.3842 -0.61651,0 -1.11629,-0.619728 -1.11629,-1.3842 0,-0.764473 0.49978,-1.3842006 1.11629,-1.3842006 0.61651,0 1.11629,0.6197276 1.11629,1.3842006 z"
         sodipodi:ry="1.3842002"
         sodipodi:rx="1.1162905"
         sodipodi:cy="10.879784"
         sodipodi:cx="14.958293"
         id="path3013-1-8"
         style="fill:#ffffff;fill-opacity:1;fill-rule:nonzero;stroke:none"
         sodipodi:type="arc" />
      <path
         sodipodi:type="arc"
         style="fill:#000000;fill-opacity:1;fill-rule:nonzero;stroke:none"
         id="path3033-5"
         sodipodi:cx="14.958293"
         sodipodi:cy="10.879784"
         sodipodi:rx="1.1162905"
         sodipodi:ry="1.3842002"
         d="m 16.074583,10.879784 c 0,0.764472 -0.49978,1.3842 -1.11629,1.3842 -0.61651,0 -1.11629,-0.619728 -1.11629,-1.3842 0,-0.764473 0.49978,-1.3842006 1.11629,-1.3842006 0.61651,0 1.11629,0.6197276 1.11629,1.3842006 z"
         transform="matrix(0.96994331,-0.16672855,0.11799421,0.68643128,-7.1252955,14.360939)" />
      <path
         sodipodi:type="arc"
         style="fill:#1a1a1a;fill-opacity:1;fill-rule:nonzero;stroke:none"
         id="path3014-7"
         sodipodi:cx="9.1535826"
         sodipodi:cy="15.389597"
         sodipodi:rx="5.1349363"
         sodipodi:ry="5.3581944"
         d="m 14.288519,15.389597 c 0,2.959249 -2.298989,5.358194 -5.1349364,5.358194 -2.8359471,0 -5.1349364,-2.398945 -5.1349364,-5.358194 0,-2.959249 2.2989893,-5.358194 5.1349364,-5.358194 2.8359474,0 5.1349364,2.398945 5.1349364,5.358194 z"
         transform="matrix(0.70629278,0.18333102,-0.24627846,0.95690214,1.7592409,9.8841369)" />
    </g>
    <g
       transform="translate(-0.36787135,1020.3622)"
       inkscape:label="Layer 1"
       id="layer1-1">
      <path
         transform="matrix(0.43726431,-0.01644654,0.01914672,0.50905391,0.73257492,15.324553)"
         inkscape:transform-center-y="-0.50447746"
         inkscape:transform-center-x="-0.0035503998"
         d="M 12.68106,33.160942 5.7346421,32.884902 9.446908,27.007148 z"
         inkscape:randomized="0"
         inkscape:rounded="0"
         inkscape:flatsided="true"
         sodipodi:arg2="1.6105138"
         sodipodi:arg1="0.56331626"
         sodipodi:r2="2.0068407"
         sodipodi:r1="4.0136814"
         sodipodi:cy="31.017664"
         sodipodi:cx="9.2875366"
         sodipodi:sides="3"
         id="path3037-8"
         style="fill:#ffff00;fill-opacity:1;fill-rule:nonzero;stroke:none"
         sodipodi:type="star" />
      <path
         transform="matrix(0.32296547,-0.01337864,0.01587574,0.38324648,1.0725669,19.38904)"
         inkscape:transform-center-y="-0.41923981"
         inkscape:transform-center-x="-0.020952001"
         d="m 28.487733,33.786066 -7.77087,-0.157255 4.021622,-6.651143 z"
         inkscape:randomized="0"
         inkscape:rounded="0"
         inkscape:flatsided="true"
         sodipodi:arg2="1.59103"
         sodipodi:arg1="0.54383246"
         sodipodi:r2="2.243716"
         sodipodi:r1="4.4874325"
         sodipodi:cy="31.464182"
         sodipodi:cx="24.647694"
         sodipodi:sides="3"
         id="path3039-9"
         style="fill:#ffff00;fill-opacity:1;fill-rule:nonzero;stroke:none"
         sodipodi:type="star" />
      <path
         transform="matrix(0.17000217,-0.53467013,0.66358915,0.29311013,-2.7532041,25.416573)"
         d="m 14.288519,15.389597 c 0,2.959249 -2.298989,5.358194 -5.1349364,5.358194 -2.8359471,0 -5.1349364,-2.398945 -5.1349364,-5.358194 0,-2.959249 2.2989893,-5.358194 5.1349364,-5.358194 2.8359474,0 5.1349364,2.398945 5.1349364,5.358194 z"
         sodipodi:ry="5.3581944"
         sodipodi:rx="5.1349363"
         sodipodi:cy="15.389597"
         sodipodi:cx="9.1535826"
         id="path3016-2"
         style="fill:#1a1a1a;fill-opacity:1;fill-rule:nonzero;stroke:none"
         sodipodi:type="arc" />
      <path
         transform="matrix(0.58304072,0,0,0.5986899,-10.158159,14.837071)"
         d="m 37.775271,18.604513 c 0,4.488194 -4.038224,8.126595 -9.019627,8.126595 -4.981403,0 -9.019628,-3.638401 -9.019628,-8.126595 0,-4.488194 4.038225,-8.126594 9.019628,-8.126594 4.981403,0 9.019627,3.6384 9.019627,8.126594 z"
         sodipodi:ry="8.1265945"
         sodipodi:rx="9.0196276"
         sodipodi:cy="18.604513"
         sodipodi:cx="28.755644"
         id="path2999-7"
         style="fill:#333333;fill-opacity:1;fill-rule:nonzero;stroke:none"
         sodipodi:type="arc" />
      <path
         transform="matrix(0.50212702,0,0,0.50212702,-0.92994748,15.940376)"
         d="m 16.967616,11.638862 c 0,2.860607 -2.898726,5.179587 -6.474485,5.179587 -3.5757596,0 -6.4744852,-2.31898 -6.4744852,-5.179587 0,-2.8606077 2.8987256,-5.1795882 6.4744852,-5.1795882 3.575759,0 6.474485,2.3189805 6.474485,5.1795882 z"
         sodipodi:ry="5.1795878"
         sodipodi:rx="6.4744849"
         sodipodi:cy="11.638862"
         sodipodi:cx="10.493131"
         id="path2993-9"
         style="fill:none;stroke:none"
         sodipodi:type="arc" />
      <path
         transform="matrix(0.50212702,0,0,0.50212702,-0.92994748,15.940376)"
         d="m 17.235526,11.86212 c 0,3.674401 -2.159051,6.653091 -4.822375,6.653091 -2.6633243,0 -4.822375,-2.97869 -4.822375,-6.653091 0,-3.6744013 2.1590507,-6.6530918 4.822375,-6.6530918 2.663324,0 4.822375,2.9786905 4.822375,6.6530918 z"
         sodipodi:ry="6.6530914"
         sodipodi:rx="4.8223748"
         sodipodi:cy="11.86212"
         sodipodi:cx="12.413151"
         id="path2995-5"
         style="fill:none;stroke:none"
         sodipodi:type="arc" />
      <path
         sodipodi:type="arc"
         style="fill:#666666;fill-opacity:1;fill-rule:nonzero;stroke:none"
         id="path3018-4"
         sodipodi:cx="28.755644"
         sodipodi:cy="18.604513"
         sodipodi:rx="9.0196276"
         sodipodi:ry="8.1265945"
         d="m 37.775271,18.604513 c 0,4.488194 -4.038224,8.126595 -9.019627,8.126595 -4.981403,0 -9.019628,-3.638401 -9.019628,-8.126595 0,-4.488194 4.038225,-8.126594 9.019628,-8.126594 4.981403,0 9.019627,3.6384 9.019627,8.126594 z"
         transform="matrix(-0.05303071,0.35245461,-0.37606652,-0.06785941,15.983954,16.356169)" />
      <path
         transform="matrix(0.67637869,0,0,0.67072826,0.97472792,9.2716545)"
         d="m 14.288519,15.389597 c 0,2.959249 -2.298989,5.358194 -5.1349364,5.358194 -2.8359471,0 -5.1349364,-2.398945 -5.1349364,-5.358194 0,-2.959249 2.2989893,-5.358194 5.1349364,-5.358194 2.8359474,0 5.1349364,2.398945 5.1349364,5.358194 z"
         sodipodi:ry="5.3581944"
         sodipodi:rx="5.1349363"
         sodipodi:cy="15.389597"
         sodipodi:cx="9.1535826"
         id="path2997-3"
         style="fill:#1a1a1a;fill-opacity:1;fill-rule:nonzero;stroke:none"
         sodipodi:type="arc" />
      <path
         inkscape:transform-center-y="-0.18402948"
         inkscape:transform-center-x="-0.34743719"
         transform="matrix(0.02134769,-0.29530654,0.97435413,0.11060128,-2.1355118,23.079885)"
         d="m 13.395486,16.014719 -2.165489,-3.750735 4.330977,-1e-6 z"
         inkscape:randomized="0"
         inkscape:rounded="0"
         inkscape:flatsided="true"
         sodipodi:arg2="2.6179939"
         sodipodi:arg1="1.5707963"
         sodipodi:r2="1.2502455"
         sodipodi:r1="2.5004907"
         sodipodi:cy="13.514229"
         sodipodi:cx="13.395486"
         sodipodi:sides="3"
         id="path3003-12"
         style="fill:#ffff00;fill-opacity:1;fill-rule:nonzero;stroke:none"
         sodipodi:type="star" />
      <path
         transform="matrix(1.0878459,-0.13881017,0.18465646,0.79742742,-9.813283,12.135862)"
         d="m 16.074583,10.879784 c 0,0.764472 -0.49978,1.3842 -1.11629,1.3842 -0.61651,0 -1.11629,-0.619728 -1.11629,-1.3842 0,-0.764473 0.49978,-1.3842006 1.11629,-1.3842006 0.61651,0 1.11629,0.6197276 1.11629,1.3842006 z"
         sodipodi:ry="1.3842002"
         sodipodi:rx="1.1162905"
         sodipodi:cy="10.879784"
         sodipodi:cx="14.958293"
         id="path3013-1-3"
         style="fill:#ffffff;fill-opacity:1;fill-rule:nonzero;stroke:none"
         sodipodi:type="arc" />
      <path
         sodipodi:type="arc"
         style="fill:#000000;fill-opacity:1;fill-rule:nonzero;stroke:none"
         id="path3033-3"
         sodipodi:cx="14.958293"
         sodipodi:cy="10.879784"
         sodipodi:rx="1.1162905"
         sodipodi:ry="1.3842002"
         d="m 16.074583,10.879784 c 0,0.764472 -0.49978,1.3842 -1.11629,1.3842 -0.61651,0 -1.11629,-0.619728 -1.11629,-1.3842 0,-0.764473 0.49978,-1.3842006 1.11629,-1.3842006 0.61651,0 1.11629,0.6197276 1.11629,1.3842006 z"
         transform="matrix(0.96994331,-0.16672855,0.11799421,0.68643128,-7.1252955,14.360939)" />
      <path
         sodipodi:type="arc"
         style="fill:#1a1a1a;fill-opacity:1;fill-rule:nonzero;stroke:none"
         id="path3014-4"
         sodipodi:cx="9.1535826"
         sodipodi:cy="15.389597"
         sodipodi:rx="5.1349363"
         sodipodi:ry="5.3581944"
         d="m 14.288519,15.389597 c 0,2.959249 -2.298989,5.358194 -5.1349364,5.358194 -2.8359471,0 -5.1349364,-2.398945 -5.1349364,-5.358194 0,-2.959249 2.2989893,-5.358194 5.1349364,-5.358194 2.8359474,0 5.1349364,2.398945 5.1349364,5.358194 z"
         transform="matrix(0.58563408,0.08376916,-0.13595037,0.79624733,0.19432111,12.940103)" />
    </g>
    <g
       transform="translate(47.632129,1020.3622)"
       inkscape:label="Layer 1"
       id="layer1-13">
      <path
         transform="matrix(0.43726431,-0.01644654,0.01914672,0.50905391,0.73257492,15.324553)"
         inkscape:transform-center-y="-0.50447746"
         inkscape:transform-center-x="-0.0035503998"
         d="M 12.68106,33.160942 5.7346421,32.884902 9.446908,27.007148 z"
         inkscape:randomized="0"
         inkscape:rounded="0"
         inkscape:flatsided="true"
         sodipodi:arg2="1.6105138"
         sodipodi:arg1="0.56331626"
         sodipodi:r2="2.0068407"
         sodipodi:r1="4.0136814"
         sodipodi:cy="31.017664"
         sodipodi:cx="9.2875366"
         sodipodi:sides="3"
         id="path3037-87"
         style="fill:#ffff00;fill-opacity:1;fill-rule:nonzero;stroke:none"
         sodipodi:type="star" />
      <path
         transform="matrix(0.32296547,-0.01337864,0.01587574,0.38324648,1.0725669,19.38904)"
         inkscape:transform-center-y="-0.41923981"
         inkscape:transform-center-x="-0.020952001"
         d="m 28.487733,33.786066 -7.77087,-0.157255 4.021622,-6.651143 z"
         inkscape:randomized="0"
         inkscape:rounded="0"
         inkscape:flatsided="true"
         sodipodi:arg2="1.59103"
         sodipodi:arg1="0.54383246"
         sodipodi:r2="2.243716"
         sodipodi:r1="4.4874325"
         sodipodi:cy="31.464182"
         sodipodi:cx="24.647694"
         sodipodi:sides="3"
         id="path3039-42"
         style="fill:#ffff00;fill-opacity:1;fill-rule:nonzero;stroke:none"
         sodipodi:type="star" />
      <path
         transform="matrix(0.18319356,-0.52933384,0.71508065,0.29018474,-2.1633937,25.829492)"
         d="m 14.288519,15.389597 c 0,2.959249 -2.298989,5.358194 -5.1349364,5.358194 -2.8359471,0 -5.1349364,-2.398945 -5.1349364,-5.358194 0,-2.959249 2.2989893,-5.358194 5.1349364,-5.358194 2.8359474,0 5.1349364,2.398945 5.1349364,5.358194 z"
         sodipodi:ry="5.3581944"
         sodipodi:rx="5.1349363"
         sodipodi:cy="15.389597"
         sodipodi:cx="9.1535826"
         id="path3016-7"
         style="fill:#1a1a1a;fill-opacity:1;fill-rule:nonzero;stroke:none"
         sodipodi:type="arc" />
      <path
         transform="matrix(0.60404389,0,0,0.5986899,-10.95156,15.152806)"
         d="m 37.775271,18.604513 c 0,4.488194 -4.038224,8.126595 -9.019627,8.126595 -4.981403,0 -9.019628,-3.638401 -9.019628,-8.126595 0,-4.488194 4.038225,-8.126594 9.019628,-8.126594 4.981403,0 9.019627,3.6384 9.019627,8.126594 z"
         sodipodi:ry="8.1265945"
         sodipodi:rx="9.0196276"
         sodipodi:cy="18.604513"
         sodipodi:cx="28.755644"
         id="path2999-79"
         style="fill:#333333;fill-opacity:1;fill-rule:nonzero;stroke:none"
         sodipodi:type="arc" />
      <path
         transform="matrix(0.50212702,0,0,0.50212702,-0.92994748,15.940376)"
         d="m 16.967616,11.638862 c 0,2.860607 -2.898726,5.179587 -6.474485,5.179587 -3.5757596,0 -6.4744852,-2.31898 -6.4744852,-5.179587 0,-2.8606077 2.8987256,-5.1795882 6.4744852,-5.1795882 3.575759,0 6.474485,2.3189805 6.474485,5.1795882 z"
         sodipodi:ry="5.1795878"
         sodipodi:rx="6.4744849"
         sodipodi:cy="11.638862"
         sodipodi:cx="10.493131"
         id="path2993-3"
         style="fill:none;stroke:none"
         sodipodi:type="arc" />
      <path
         transform="matrix(0.50212702,0,0,0.50212702,-0.92994748,15.940376)"
         d="m 17.235526,11.86212 c 0,3.674401 -2.159051,6.653091 -4.822375,6.653091 -2.6633243,0 -4.822375,-2.97869 -4.822375,-6.653091 0,-3.6744013 2.1590507,-6.6530918 4.822375,-6.6530918 2.663324,0 4.822375,2.9786905 4.822375,6.6530918 z"
         sodipodi:ry="6.6530914"
         sodipodi:rx="4.8223748"
         sodipodi:cy="11.86212"
         sodipodi:cx="12.413151"
         id="path2995-1"
         style="fill:none;stroke:none"
         sodipodi:type="arc" />
      <path
         sodipodi:type="arc"
         style="fill:#666666;fill-opacity:1;fill-rule:nonzero;stroke:none"
         id="path3018-9"
         sodipodi:cx="28.755644"
         sodipodi:cy="18.604513"
         sodipodi:rx="9.0196276"
         sodipodi:ry="8.1265945"
         d="m 37.775271,18.604513 c 0,4.488194 -4.038224,8.126595 -9.019627,8.126595 -4.981403,0 -9.019628,-3.638401 -9.019628,-8.126595 0,-4.488194 4.038225,-8.126594 9.019628,-8.126594 4.981403,0 9.019627,3.6384 9.019627,8.126594 z"
         transform="matrix(-0.05303071,0.35245461,-0.37606652,-0.06785941,15.983954,16.356169)" />
      <path
         transform="matrix(0.67637869,0,0,0.67072826,0.97472792,9.2716545)"
         d="m 14.288519,15.389597 c 0,2.959249 -2.298989,5.358194 -5.1349364,5.358194 -2.8359471,0 -5.1349364,-2.398945 -5.1349364,-5.358194 0,-2.959249 2.2989893,-5.358194 5.1349364,-5.358194 2.8359474,0 5.1349364,2.398945 5.1349364,5.358194 z"
         sodipodi:ry="5.3581944"
         sodipodi:rx="5.1349363"
         sodipodi:cy="15.389597"
         sodipodi:cx="9.1535826"
         id="path2997-8"
         style="fill:#1a1a1a;fill-opacity:1;fill-rule:nonzero;stroke:none"
         sodipodi:type="arc" />
      <path
         inkscape:transform-center-y="-0.18402948"
         inkscape:transform-center-x="-0.34743719"
         transform="matrix(0.02134769,-0.29530654,0.97435413,0.11060128,-2.1355118,23.079885)"
         d="m 13.395486,16.014719 -2.165489,-3.750735 4.330977,-1e-6 z"
         inkscape:randomized="0"
         inkscape:rounded="0"
         inkscape:flatsided="true"
         sodipodi:arg2="2.6179939"
         sodipodi:arg1="1.5707963"
         sodipodi:r2="1.2502455"
         sodipodi:r1="2.5004907"
         sodipodi:cy="13.514229"
         sodipodi:cx="13.395486"
         sodipodi:sides="3"
         id="path3003-65"
         style="fill:#ffff00;fill-opacity:1;fill-rule:nonzero;stroke:none"
         sodipodi:type="star" />
      <path
         transform="matrix(1.0878459,-0.13881017,0.18465646,0.79742742,-9.813283,12.135862)"
         d="m 16.074583,10.879784 c 0,0.764472 -0.49978,1.3842 -1.11629,1.3842 -0.61651,0 -1.11629,-0.619728 -1.11629,-1.3842 0,-0.764473 0.49978,-1.3842006 1.11629,-1.3842006 0.61651,0 1.11629,0.6197276 1.11629,1.3842006 z"
         sodipodi:ry="1.3842002"
         sodipodi:rx="1.1162905"
         sodipodi:cy="10.879784"
         sodipodi:cx="14.958293"
         id="path3013-1-0"
         style="fill:#ffffff;fill-opacity:1;fill-rule:nonzero;stroke:none"
         sodipodi:type="arc" />
      <path
         sodipodi:type="arc"
         style="fill:#000000;fill-opacity:1;fill-rule:nonzero;stroke:none"
         id="path3033-2"
         sodipodi:cx="14.958293"
         sodipodi:cy="10.879784"
         sodipodi:rx="1.1162905"
         sodipodi:ry="1.3842002"
         d="m 16.074583,10.879784 c 0,0.764472 -0.49978,1.3842 -1.11629,1.3842 -0.61651,0 -1.11629,-0.619728 -1.11629,-1.3842 0,-0.764473 0.49978,-1.3842006 1.11629,-1.3842006 0.61651,0 1.11629,0.6197276 1.11629,1.3842006 z"
         transform="matrix(0.96994331,-0.16672855,0.11799421,0.68643128,-7.1252955,14.360939)" />
      <path
         sodipodi:type="arc"
         style="fill:#1a1a1a;fill-opacity:1;fill-rule:nonzero;stroke:none"
         id="path3014-8"
         sodipodi:cx="9.1535826"
         sodipodi:cy="15.389597"
         sodipodi:rx="5.1349363"
         sodipodi:ry="5.3581944"
         d="m 14.288519,15.389597 c 0,2.959249 -2.298989,5.358194 -5.1349364,5.358194 -2.8359471,0 -5.1349364,-2.398945 -5.1349364,-5.358194 0,-2.959249 2.2989893,-5.358194 5.1349364,-5.358194 2.8359474,0 5.1349364,2.398945 5.1349364,5.358194 z"
         transform="matrix(0.58563408,0.08376916,-0.13595037,0.79624733,0.19432111,12.940103)" />
    </g>
  </g>
</svg>
